<?xml version="1.0" encoding="UTF-8" standalone="no"?>
<!-- Created with Inkscape (http://www.inkscape.org/) -->

<svg
   xmlns:dc="http://purl.org/dc/elements/1.1/"
   xmlns:cc="http://creativecommons.org/ns#"
   xmlns:rdf="http://www.w3.org/1999/02/22-rdf-syntax-ns#"
   xmlns:svg="http://www.w3.org/2000/svg"
   xmlns="http://www.w3.org/2000/svg"
   xmlns:sodipodi="http://sodipodi.sourceforge.net/DTD/sodipodi-0.dtd"
   xmlns:inkscape="http://www.inkscape.org/namespaces/inkscape"
   width="100"
   height="100"
   viewBox="0 0 26.458333 26.458333"
   version="1.1"
   id="svg8"
   inkscape:version="0.92.3 (2405546, 2018-03-11)"
   sodipodi:docname="github.svg"
   inkscape:export-filename="/home/batnight99/Documentos/servergit/batnight99.github.io/img/github.png"
   inkscape:export-xdpi="90"
   inkscape:export-ydpi="90">
  <defs
     id="defs2" />
  <sodipodi:namedview
     id="base"
     pagecolor="#ffffff"
     bordercolor="#666666"
     borderopacity="1.0"
     inkscape:pageopacity="0.0"
     inkscape:pageshadow="2"
     inkscape:zoom="5.55"
     inkscape:cx="50"
     inkscape:cy="50"
     inkscape:document-units="mm"
     inkscape:current-layer="layer1"
     showgrid="false"
     units="px"
     inkscape:window-width="1366"
     inkscape:window-height="743"
     inkscape:window-x="0"
     inkscape:window-y="0"
     inkscape:window-maximized="1" />
  <metadata
     id="metadata5">
    <rdf:RDF>
      <cc:Work
         rdf:about="">
        <dc:format>image/svg+xml</dc:format>
        <dc:type
           rdf:resource="http://purl.org/dc/dcmitype/StillImage" />
        <dc:title></dc:title>
      </cc:Work>
    </rdf:RDF>
  </metadata>
  <g
     inkscape:label="Camada 1"
     inkscape:groupmode="layer"
     id="layer1"
     transform="translate(0,-270.54168)">
    <path
       style="fill:#547980;fill-opacity:1;stroke-width:0.05170819"
       d="m 8.4461426,296.45541 c -1.84019,-0.72061 -3.212736,-1.60984 -4.551972,-2.94908 -2.2044031,-2.2044 -3.54470705,-4.99517 -3.85237805,-8.02138 -0.08112,-0.79788 -0.038034,-2.74466 0.076567,-3.45949 0.45490301,-2.83751 1.75813995,-5.37876 3.78471005,-7.38001 2.086911,-2.06083 4.594758,-3.28995 7.5938564,-3.7218 0.616976,-0.0888 2.847473,-0.0888 3.464449,0 1.320536,0.19015 2.595587,0.54688 3.652427,1.02186 4.130236,1.85628 7.008182,5.61108 7.725984,10.07995 0.114765,0.7145 0.157928,2.66078 0.07672,3.45949 -0.307456,3.0241 -1.651614,5.82267 -3.852285,8.02057 -1.355291,1.35358 -2.813702,2.29236 -4.623712,2.97629 -0.6324,0.23897 -0.949033,0.26357 -1.168642,0.0908 -0.279184,-0.21961 -0.285103,-0.27298 -0.285103,-2.57052 0,-2.31885 -0.02865,-2.63241 -0.294778,-3.22663 -0.07922,-0.17688 -0.243005,-0.44333 -0.363975,-0.59212 -0.25319,-0.31142 -0.290222,-0.2785 0.426066,-0.37869 1.203615,-0.16834 2.159633,-0.51239 3.076637,-1.1072 1.351742,-0.8768 2.080507,-2.30861 2.280372,-4.48025 0.148194,-1.61022 -0.179186,-2.89129 -1.015472,-3.97366 l -0.298068,-0.38578 0.06648,-0.23472 c 0.208265,-0.73535 0.250533,-1.27064 0.152492,-1.93119 -0.06091,-0.41035 -0.286937,-1.21415 -0.369934,-1.31554 -0.0291,-0.0356 -0.160587,-0.0643 -0.292191,-0.0639 -0.650842,0.002 -1.7311,0.43413 -2.941536,1.17647 l -0.375384,0.23021 -0.451948,-0.10922 c -1.823549,-0.44072 -3.889206,-0.44072 -5.712755,0 l -0.4519483,0.10922 -0.375384,-0.23323 c -1.0497931,-0.65228 -2.3629111,-1.17421 -2.9541391,-1.17421 -0.301022,0 -0.35281,0.074 -0.528822,0.7553 -0.231275,0.89525 -0.219679,1.69055 0.037636,2.58105 0.060038,0.20778 0.059749,0.20848 -0.254021,0.6205 -0.474969,0.62369 -0.769836,1.28099 -0.950532,2.11886 -0.093727,0.4346 -0.079014,1.88846 0.025384,2.50846 0.169332,1.00564 0.540353,1.98966 1.006219,2.6687 0.784812,1.14392 2.42429,2.00112 4.2943034,2.24525 0.694907,0.0907 0.664656,0.0661 0.42783,0.3482 -0.319307,0.38033 -0.626058,1.09885 -0.626058,1.46645 0,0.0608 -0.093908,0.12398 -0.2973213,0.2001 -0.428616,0.16039 -0.7957861,0.21934 -1.3831931,0.22206 -0.419,0.002 -0.574209,-0.0199 -0.818244,-0.11519 -0.50189,-0.19596 -0.890746,-0.53318 -1.286423,-1.1156 -0.741601,-1.0916 -1.60258,-1.63627 -2.407902,-1.52328 -0.121431,0.017 -0.244603,0.0548 -0.27371,0.0839 -0.074766,0.0748 0.076903,0.3197 0.307715,0.49695 0.10273,0.0789 0.309242,0.23673 0.458916,0.35075 0.386341,0.29434 0.69503,0.73913 1.105171,1.59244 0.293207,0.61002 0.407343,0.79161 0.640861,1.01959 0.608875,0.59446 1.496958,0.83845 2.836548,0.77932 0.4013751,-0.0177 0.8053941,-0.0467 0.8978241,-0.0645 l 0.168051,-0.0322 v 1.32954 c 0,1.12343 -0.013103,1.35715 -0.084535,1.50768 -0.188946,0.39818 -0.604638,0.42685 -1.4408561,0.0994 z"
       id="path826"
       inkscape:connector-curvature="0" />
  </g>
</svg>
